<svg xmlns="http://www.w3.org/2000/svg" id="datamining" viewBox="0 0 48 48">
  <path d="M5,9c0-2.761,6.716-5,15-5s15,2.239,15,5v30c0,2.761-6.716,5-15,5s-15-2.239-15-5V9Z" fill="#1cd1bb" class="color1c7bd1 svgShape"></path>
  <path d="M34.17,7.36c-2.67-1.16-6.24-1.86-10.17-1.86-8.28,0-15,3.13-15,7v29.9c-2.48-.9-4-2.09-4-3.4V9c0-2.76,6.72-5,15-5,6.56,0,12.14,1.41,14.17,3.36Z" fill="#8526fe" class="color1761b2 svgShape"></path>
  <path d="M35,19c0,2.761-6.716,5-15,5s-15-2.239-15-5v-10c0,2.761,6.716,5,15,5s15-2.239,15-5v10Z" fill="#51159e" class="color154e9e svgShape"></path>
  <path d="M5,9v10c0,1.31,1.52,2.5,4,3.4v-9.9c0-.03,0-.06.01-.09-2.49-.9-4.01-2.1-4.01-3.41Z" fill="#450d8d" class="color0d3b8d svgShape"></path>
  <path d="M35,29c0,2.761-6.716,5-15,5s-15-2.239-15-5v-10c0,2.761,6.716,5,15,5s15-2.239,15-5v10Z" fill="#8526fe" class="color1761b2 svgShape"></path>
  <path d="M35 22.89v6.11c0 .77-.52 1.5-1.45 2.14-2.1 1.48-6.3 2.55-11.31 2.8.51-1.04 1.1-2.03 1.78-2.97-.19-.82.02-1.71.66-2.34l2.12-2.13c.47-.47 1.1-.73 1.77-.73.19 0 .38.03.57.08 1.8-1.28 3.77-2.28 5.86-2.96ZM9 22.4v10c-2.48-.9-4-2.09-4-3.4v-10c0 1.31 1.52 2.5 4 3.4Z" fill="#51159e" class="color154e9e svgShape"></path>
  <path d="M35,29c0,2.761-6.716,5-15,5s-15-2.239-15-5v10c0,2.761,6.716,5,15,5s15-2.239,15-5v-10Z" fill="#51159e" class="color154e9e svgShape"></path>
  <path d="M35 29v10c0 .5-.22.98-.63 1.44l-4.83-4.83c-.4-.4-1.08-.39-1.46.04-1.44 1.63-2.79 3.32-4.04 5.06-.39.54-.98.85-1.63.85-.61 0-1.2-.28-1.58-.75-.38-.46-.51-1.05-.39-1.65.37-1.82.98-3.58 1.8-5.22 5.01-.25 9.21-1.32 11.31-2.8.93-.64 1.45-1.37 1.45-2.14ZM9 32.4v10c-2.48-.9-4-2.09-4-3.4v-10c0 1.31 1.52 2.5 4 3.4Z" fill="#450d8d" class="color0d3b8d svgShape"></path>
  <rect width="4" height="16" x="34.343" y="27.343" rx="1" ry="1" transform="rotate(-45 36.343 35.343)" fill="#d8a353" class="colore5b37c svgShape"></rect>
  <path d="M38.948,21.832c1.06-.218,1.645,1.175.766,1.807-2.856,2.05-5.581,4.361-8.147,6.928s-4.877,5.292-6.928,8.147c-.631.879-2.024.295-1.807-.766.788-3.838,2.67-7.493,5.646-10.469s6.632-4.859,10.469-5.646Z" fill="#5fe4d4" class="colorcfe0f3 svgShape"></path>
  <rect width="6" height="6" x="26.979" y="25.979" rx="1.5" ry="1.5" transform="rotate(-45 29.979 28.98)" fill="#ad59d4" class="color7d99bc svgShape"></rect>
  <path d="M43.416,38.172l-8.851-8.851c.012-.084.021-.167.024-.252,1.794-1.625,3.708-3.179,5.701-4.618.094-.067.18-.141.259-.22.581-.581.755-1.457.414-2.235-.386-.881-1.278-1.342-2.216-1.147-.932.191-1.849.452-2.748.766v-12.615c0-3.939-8.049-6-16-6S4,5.061,4,9v30c0,3.939,8.049,6,16,6,7.801,0,15.677-1.989,15.972-5.784l3.2,3.2c.779.779,2.046.779,2.824,0l1.42-1.42c.779-.779.779-2.046,0-2.824ZM39.123,22.828c-1.862,1.344-3.653,2.786-5.349,4.29l-1.472-1.472c2.068-1.362,4.407-2.335,6.821-2.817ZM26.645,31.302l1.472,1.472c-1.504,1.697-2.948,3.491-4.309,5.375.499-2.436,1.474-4.78,2.837-6.848ZM27.503,29.331c-.195-.195-.195-.512,0-.707l2.121-2.121c.195-.195.512-.195.707,0l2.121,2.121c.195.195.195.512,0,.707l-2.121,2.121c-.195.195-.512.195-.707,0l-2.121-2.121ZM20,5c8.546,0,14,2.369,14,4s-5.45,4-14,4-14-2.37-14-4,5.454-4,14-4ZM6,12.058c2.882,1.942,8.462,2.942,14,2.942s11.118-1,14-2.942v6.942c0,1.63-5.45,4-14,4s-14-2.37-14-4v-6.942ZM6,22.058c2.882,1.942,8.462,2.942,14,2.942s11.118-1,14-2.942v.369c-1.211.563-2.371,1.23-3.453,2.003-.814-.189-1.704.025-2.337.658l-2.121,2.121c-.633.633-.848,1.523-.658,2.337-.739,1.034-1.381,2.142-1.929,3.295-1.105.092-2.256.158-3.501.158-8.55,0-14-2.37-14-4v-6.942ZM34,39c0,1.631-5.454,4-14,4s-14-2.369-14-4v-6.942c2.882,1.942,8.462,2.942,14,2.942.886,0,1.769-.036,2.645-.087-.328.926-.599,1.872-.796,2.833-.195.941.266,1.832,1.147,2.219.778.341,1.654.167,2.235-.413.078-.078.152-.165.219-.258,1.441-1.997,2.996-3.91,4.62-5.705.084-.003.168-.013.251-.024l3.679,3.679v1.756ZM40.586,41.002l-8.487-8.487,1.416-1.416,8.487,8.483-1.416,1.42Z" fill="#2e085e" class="color08105e svgShape"></path>
  <path d="M9.34 16.459c-.517-.186-1.092.08-1.281.6-.188.519.081 1.092.6 1.281 1.679.608 3.83 1.083 6.22 1.373.041.005.082.007.122.007.498 0 .93-.372.991-.879.066-.548-.324-1.047-.872-1.113-2.243-.272-4.241-.71-5.78-1.268ZM9.34 26.459c-.517-.187-1.092.08-1.281.6-.188.519.081 1.092.6 1.281 1.679.608 3.83 1.083 6.22 1.373.041.005.082.007.122.007.498 0 .93-.372.991-.879.066-.548-.324-1.047-.872-1.113-2.243-.272-4.241-.71-5.78-1.268ZM9.34 36.459c-.517-.186-1.092.08-1.281.6-.188.519.081 1.092.6 1.281 1.679.608 3.83 1.083 6.22 1.373.041.005.082.007.122.007.498 0 .93-.372.991-.879.066-.548-.324-1.047-.872-1.113-2.243-.272-4.241-.71-5.78-1.268Z" fill="#2e085e" class="color08105e svgShape"></path>
</svg>
